<?xml version="1.0" standalone="no"?>
<!DOCTYPE svg PUBLIC "-//W3C//DTD SVG 20010904//EN"
 "http://www.w3.org/TR/2001/REC-SVG-20010904/DTD/svg10.dtd">
<svg version="1.0" xmlns="http://www.w3.org/2000/svg"
 width="1280.000000pt" height="846.000000pt" viewBox="0 0 1280.000000 846.000000"
 preserveAspectRatio="xMidYMid meet">
<g transform="translate(0.000000,846.000000) scale(0.100000,-0.100000)"
fill="#ffc107" stroke="none">
<path d="M6060 8454 c-1577 -78 -3239 -546 -4360 -1227 -1034 -629 -1609
-1396 -1690 -2252 -6 -66 -10 -451 -10 -954 l0 -844 67 89 c36 49 68 91 69 93
2 2 27 -18 56 -44 64 -57 147 -100 242 -125 39 -10 59 -19 45 -19 -51 -2 -156
-41 -218 -81 -85 -55 -152 -127 -196 -211 -58 -110 -65 -164 -65 -500 0 -262
2 -305 20 -373 27 -106 63 -168 145 -252 75 -76 162 -126 258 -150 48 -11 40
-12 -122 -13 -153 -1 -180 -3 -216 -21 -66 -32 -85 -76 -85 -196 0 -68 5 -108
15 -127 13 -25 13 -36 0 -90 -21 -91 -21 -635 0 -726 49 -207 211 -368 418
-416 58 -13 726 -15 5979 -13 l5913 3 69 27 c176 68 310 217 351 389 21 90 22
659 1 739 -12 47 -12 58 0 82 9 18 14 61 14 130 0 126 -15 162 -80 196 -41 20
-58 22 -215 23 l-170 0 60 18 c97 28 165 69 241 145 77 77 124 157 149 253 22
84 22 663 0 748 -52 204 -224 370 -422 408 l-61 11 68 17 c93 24 164 59 236
118 l61 49 64 -86 64 -86 3 783 c2 773 2 783 22 788 24 6 26 49 9 219 -61 634
-394 1224 -979 1737 -1035 908 -2863 1567 -4775 1722 -180 15 -812 27 -975 19z"/>
</g>
</svg>
